Big Tit Christmas DVD

Brazzers

Category All Sex, Big Tits, Threesomes & More, Holiday Themed 

Starring Phoenix Marie, Shyla Stylez, Kagney Linn Karter, Nikki Sexx, Rachel Roxxx, Sienna West, Shawna Lenee, Carmella Bing, Savannah Stern, Mindy Main, Dylan Riley

Studio Brazzers 

Discs 1 

Release Date Dec 24, 2010

 
http://bayimg.com/aaMfFaADk
 
http://bayimg.com/AamfgAadk
 
http://bayimg.com/aaMFHaAdK
 
http://bayimg.com/aAMFJaADK

Big Tit Christmas DVD

General
Complete name                    : C:\Downloads\Big Tit Christmas DVD\dvd\Big Tit Christmas DVD.avi
Format                           : AVI
Format/Info                      : Audio Video Interleave
Format profile                   : OpenDML
File size                        : 1.99 GiB
Duration                         : 3h 32mn
Overall bit rate                 : 1 340 Kbps
Writing application              : MEncoder SVN-r30881(20100311-gcc4.3.3)
Writing library                  : MPlayer

Video
ID                               : 0
Format                           : MPEG-4 Visual
Format profile                   : Advanced Simple@L5
Format settings, BVOP            : 2
Format settings, QPel            : No
Format settings, GMC             : No warppoints
Format settings, Matrix          : Default (H.263)
Codec ID                         : XVID
Codec ID/Hint                    : XviD
Duration                         : 3h 32mn
Bit rate                         : 30.7 Kbps
Width                            : 720 pixels
Height                           : 480 pixels
Display aspect ratio             : 3:2
Frame rate                       : 25.000 fps
Standard                         : NTSC
Color space                      : YUV
Chroma subsampling               : 4:2:0
Bit depth                        : 8 bits
Scan type                        : Progressive
Compression mode                 : Lossy
Bits/(Pixel*Frame)               : 0.004
Stream size                      : 46.7 MiB (2%)
Writing library                  : XviD 1.2.1 (UTC 2008-12-04)

Audio
ID                               : 1
Format                           : MPEG Audio
Codec ID                         : 55
Codec ID/Hint                    : MP3
Duration                         : 3h 32mn
Bit rate                         : 128 Kbps
Channel(s)                       : 2 channels
Sampling rate                    : 44.1 KHz
Compression mode                 : Lossy
Stream size                      : 195 MiB (10%)
Alignment                        : Aligned on interleaves